<svg width="88" height="72" viewBox="0 0 88 72" fill="none" xmlns="http://www.w3.org/2000/svg">
  <defs>
    <radialGradient id="petalCore" cx="0" cy="0" r="1" gradientUnits="userSpaceOnUse" gradientTransform="translate(44 35.5) rotate(90) scale(24 26)">
      <stop stop-color="#FFF1F8"/>
      <stop offset="0.6" stop-color="#FBCFE8"/>
      <stop offset="1" stop-color="#F472B6"/>
    </radialGradient>
    <linearGradient id="petalVein" x1="44" y1="16" x2="44" y2="56" gradientUnits="userSpaceOnUse">
      <stop stop-color="#F9A8D4" stop-opacity="0.7"/>
      <stop offset="1" stop-color="#EC4899" stop-opacity="0.4"/>
    </linearGradient>
  </defs>
  <path d="M44 8C52.3 8.1 60.7 12.6 65.1 20.4C68.9 27.1 69.1 35.5 65.5 42.4C60.7 51.7 53.1 60.4 44 64C34.9 60.4 27.3 51.7 22.5 42.4C18.9 35.5 19.1 27.1 22.9 20.4C27.3 12.6 35.7 8.1 44 8Z" fill="url(#petalCore)"/>
  <path d="M44 14V58" stroke="url(#petalVein)" stroke-width="2.1" stroke-linecap="round"/>
  <path d="M44 35.5C48.3 30.5 53.8 27 60.1 25.3" stroke="#F9A8D4" stroke-opacity="0.45" stroke-width="1.5" stroke-linecap="round"/>
  <path d="M44 35.5C39.7 30.5 34.2 27 27.9 25.3" stroke="#F9A8D4" stroke-opacity="0.45" stroke-width="1.5" stroke-linecap="round"/>
</svg>
