<svg width="96" height="108" viewBox="0 0 96 108" fill="none" xmlns="http://www.w3.org/2000/svg">
  <defs>
    <linearGradient id="mapleFill" x1="15" y1="11" x2="78" y2="96" gradientUnits="userSpaceOnUse">
      <stop stop-color="#FCD34D"/>
      <stop offset="0.38" stop-color="#FB923C"/>
      <stop offset="0.72" stop-color="#EA580C"/>
      <stop offset="1" stop-color="#B91C1C"/>
    </linearGradient>
    <linearGradient id="mapleFillLight" x1="25" y1="20" x2="66" y2="70" gradientUnits="userSpaceOnUse">
      <stop stop-color="#FDE68A" stop-opacity="0.72"/>
      <stop offset="1" stop-color="#FDE68A" stop-opacity="0"/>
    </linearGradient>
    <linearGradient id="mapleStem" x1="48" y1="70" x2="48" y2="107" gradientUnits="userSpaceOnUse">
      <stop stop-color="#9A3412"/>
      <stop offset="1" stop-color="#7C2D12"/>
    </linearGradient>
  </defs>
  <path
    d="M48 5C50 14 53 21 58 27C65 20 73 15 82 14C77 23 73 30 71 37C80 36 88 39 94 45C85 50 79 56 75 63C81 67 84 75 83 84C74 80 67 78 60 78C60 87 57 95 51 102C48 94 46 86 45 78C38 82 31 88 25 96C23 86 24 77 27 69C18 70 10 72 2 77C4 67 9 59 16 53C9 49 4 42 2 34C11 37 19 40 25 44C23 36 19 27 14 18C24 20 33 25 40 31C43 24 45 15 48 5Z"
    fill="url(#mapleFill)"
    stroke="#9A3412"
    stroke-width="1.8"
    stroke-linejoin="round"
  />
  <path
    d="M48 17C52 28 57 36 63 43C53 39 44 39 35 44C39 35 43 27 48 17Z"
    fill="url(#mapleFillLight)"
  />
  <path d="M48 68V104" stroke="url(#mapleStem)" stroke-width="4.6" stroke-linecap="round"/>
  <path d="M48 66L33 80" stroke="#9A3412" stroke-width="2.2" stroke-linecap="round" stroke-opacity="0.8"/>
  <path d="M48 66L63 80" stroke="#9A3412" stroke-width="2.2" stroke-linecap="round" stroke-opacity="0.8"/>
  <path d="M48 58L27 62" stroke="#9A3412" stroke-width="1.7" stroke-linecap="round" stroke-opacity="0.64"/>
  <path d="M48 58L69 62" stroke="#9A3412" stroke-width="1.7" stroke-linecap="round" stroke-opacity="0.64"/>
</svg>
